<?xml version="1.0" standalone="no"?>
<!DOCTYPE svg PUBLIC "-//W3C//DTD SVG 20010904//EN"
 "http://www.w3.org/TR/2001/REC-SVG-20010904/DTD/svg10.dtd">
<svg version="1.0" xmlns="http://www.w3.org/2000/svg"
 width="4167.000000pt" height="4167.000000pt" viewBox="0 0 4167.000000 4167.000000"
 preserveAspectRatio="xMidYMid meet">

<g transform="translate(0.000000,4167.000000) scale(0.100000,-0.100000)"
fill="#000000" stroke="none">
<path d="M19585 36884 c-223 -30 -401 -86 -620 -194 -170 -85 -281 -159 -422
-282 -49 -43 -2158 -2148 -4689 -4680 -3757 -3758 -4615 -4622 -4677 -4705
-211 -285 -332 -575 -383 -923 -25 -172 -15 -490 20 -658 63 -296 188 -569
374 -817 56 -75 9285 -9310 9403 -9409 377 -318 910 -489 1394 -447 423 36
791 182 1101 435 125 102 9371 9358 9436 9446 284 385 419 844 387 1315 -20
307 -118 623 -274 880 -123 203 -143 225 -1484 1568 -713 713 -1300 1297
-1306 1297 -5 0 -1747 -1737 -3870 -3860 l-3860 -3860 -1777 1777 c-978 978
-1778 1782 -1778 1788 0 6 401 411 890 900 l890 890 888 -888 887 -887 2970
2970 2970 2970 -2415 2416 c-1328 1328 -2452 2447 -2498 2487 -140 121 -250
194 -417 277 -227 113 -392 164 -630 195 -140 18 -373 18 -510 -1z m3005
-4144 c404 -49 752 -277 952 -622 295 -508 204 -1145 -220 -1550 -438 -419
-1112 -466 -1607 -113 -362 257 -563 693 -525 1133 63 710 702 1237 1400 1152z
m-2120 -2269 c230 -52 431 -159 600 -318 191 -180 317 -407 376 -678 24 -111
24 -369 0 -480 -106 -492 -456 -862 -933 -987 -110 -29 -130 -31 -298 -32
-199 -1 -279 11 -435 66 -344 122 -621 391 -759 740 -61 156 -76 244 -75 458
0 177 3 204 26 290 82 304 236 539 468 712 177 133 350 206 575 244 109 18
343 11 455 -15z"/>
<path d="M30707 13290 c-57 -15 -90 -35 -130 -79 -61 -68 -73 -171 -27 -248
11 -19 20 -36 20 -39 0 -2 -22 -4 -50 -4 l-50 0 0 -95 0 -95 280 0 280 0 0
104 0 104 -139 4 c-123 3 -143 5 -168 24 -63 47 -26 124 59 124 38 0 110 -29
123 -50 7 -11 115 136 115 155 0 13 -65 59 -113 79 -49 20 -151 28 -200 16z"/>
<path d="M29823 12677 l-573 -181 0 -316 0 -315 222 -120 c251 -135 308 -179
308 -237 0 -20 -8 -46 -19 -59 l-19 -24 -327 -3 c-319 -3 -328 -2 -372 19 -77
37 -102 90 -257 531 l-138 396 -149 -51 c-82 -29 -149 -57 -149 -63 0 -7 52
-162 116 -345 130 -374 138 -410 91 -456 l-27 -28 -215 -3 -215 -3 0 75 0 76
-136 0 -137 0 6 -132 c6 -167 24 -225 87 -289 72 -72 119 -84 325 -84 185 0
209 6 274 61 39 32 85 123 102 201 13 58 24 66 39 28 15 -39 79 -136 114 -173
17 -19 50 -45 73 -59 84 -49 127 -55 435 -60 310 -5 407 2 504 38 80 30 161
112 192 193 32 83 48 243 34 334 -28 193 -128 292 -500 498 -78 43 -141 83
-139 89 2 5 234 82 515 170 l512 160 0 158 c0 86 -1 157 -2 157 -2 -1 -261
-83 -575 -183z"/>
<path d="M12190 12353 c0 -263 -4 -515 -10 -560 -11 -97 -34 -148 -91 -197
-48 -40 -188 -103 -198 -88 -3 6 -46 237 -95 514 -49 276 -90 504 -91 506 -6
7 -268 -45 -272 -54 -2 -6 37 -242 87 -524 50 -282 87 -516 83 -520 -4 -4 -89
-26 -187 -49 -99 -22 -182 -43 -185 -46 -4 -4 67 -333 74 -343 6 -8 609 143
651 163 112 55 203 199 232 365 4 24 13 45 20 48 9 3 12 -16 12 -70 1 -192 75
-330 211 -392 90 -42 177 -47 660 -44 l446 3 68 35 c83 43 126 99 157 207 12
40 25 73 29 73 4 0 14 -24 23 -52 24 -82 75 -159 130 -196 87 -58 137 -67 361
-67 179 0 207 2 271 22 120 38 194 122 233 263 12 46 15 175 18 768 l4 712
-140 0 -141 0 -1 -627 c0 -346 -4 -650 -8 -676 -5 -32 -17 -58 -35 -75 l-26
-27 -184 0 c-183 0 -185 0 -211 25 -50 45 -55 73 -55 285 l0 195 -130 0 -130
0 0 -192 c0 -233 -10 -266 -84 -299 -43 -19 -65 -19 -590 -17 l-544 3 -27 25
c-56 51 -55 36 -55 735 l0 645 -140 0 -140 0 0 -477z"/>
<path d="M15130 11945 l0 -885 140 0 140 0 0 885 0 885 -140 0 -140 0 0 -885z"/>
<path d="M24023 12824 c-104 -24 -125 -242 -27 -294 40 -22 171 -20 205 3 36
24 54 70 54 137 0 67 -18 113 -53 136 -26 17 -134 28 -179 18z"/>
<path d="M24403 12824 c-104 -24 -125 -242 -27 -294 40 -22 171 -20 205 3 36
24 54 70 54 137 0 67 -18 113 -53 136 -26 17 -134 28 -179 18z"/>
<path d="M9233 12654 c-104 -24 -125 -242 -27 -294 40 -22 171 -20 205 3 36
24 54 70 54 137 0 67 -18 113 -53 136 -26 17 -134 28 -179 18z"/>
<path d="M9603 12654 c-104 -24 -125 -242 -27 -294 40 -22 171 -20 205 3 36
24 54 70 54 137 0 67 -18 113 -53 136 -26 17 -134 28 -179 18z"/>
<path d="M22423 12574 c-104 -24 -125 -242 -27 -294 40 -22 171 -20 205 3 36
24 54 70 54 137 0 67 -18 113 -53 136 -26 17 -134 28 -179 18z"/>
<path d="M22803 12574 c-104 -24 -125 -242 -27 -294 40 -22 171 -20 205 3 36
24 54 70 54 137 0 67 -18 113 -53 136 -26 17 -134 28 -179 18z"/>
<path d="M30610 11800 l0 -740 140 0 140 0 0 740 0 740 -140 0 -140 0 0 -740z"/>
<path d="M13633 12434 c-104 -24 -125 -242 -27 -294 40 -22 171 -20 205 3 36
24 54 70 54 137 0 67 -18 113 -53 136 -26 17 -134 28 -179 18z"/>
<path d="M14013 12434 c-104 -24 -125 -242 -27 -294 40 -22 171 -20 205 3 36
24 54 70 54 137 0 67 -18 113 -53 136 -26 17 -134 28 -179 18z"/>
<path d="M24330 12252 l0 -67 -162 -80 c-195 -97 -295 -159 -364 -230 -206
-212 -183 -600 41 -684 115 -43 259 -36 344 17 52 32 104 117 122 200 7 28 15
52 19 52 4 0 11 -28 14 -62 26 -226 157 -331 417 -333 102 0 109 1 174 35 83
43 126 98 157 207 12 40 25 73 29 73 4 0 14 -24 23 -52 51 -176 174 -261 381
-262 115 -1 170 19 225 81 22 25 50 72 61 104 24 65 39 73 58 32 40 -91 122
-159 232 -195 54 -18 96 -22 272 -26 l207 -4 0 101 c0 83 3 101 15 101 8 0 15
-4 15 -9 0 -5 23 -34 51 -65 96 -105 206 -133 484 -123 237 9 343 43 433 141
118 130 136 319 70 728 -20 128 -23 137 -43 133 -11 -2 -68 -12 -127 -21 -60
-9 -108 -20 -108 -24 0 -4 11 -67 25 -141 14 -74 30 -179 36 -234 15 -130 3
-165 -68 -198 -45 -20 -63 -22 -255 -22 l-207 0 -34 33 c-29 28 -51 77 -138
313 l-103 279 -156 0 -155 0 -103 -59 c-56 -33 -124 -75 -151 -95 -77 -57
-157 -150 -192 -224 -28 -57 -34 -81 -37 -160 l-4 -93 -193 3 c-190 3 -194 3
-221 28 -49 45 -54 73 -54 285 l0 195 -130 0 -130 0 0 -192 c0 -170 -3 -198
-20 -236 -31 -68 -72 -82 -245 -82 -158 0 -181 7 -207 60 -16 32 -18 74 -18
438 l0 402 -140 0 -140 0 0 -68z m0 -479 c0 -176 -6 -195 -59 -227 -43 -25
-236 -36 -295 -16 -47 15 -76 53 -76 99 0 80 58 128 285 237 71 35 133 63 138
63 4 1 7 -70 7 -156z m2140 -190 c30 -80 57 -150 58 -154 2 -5 -89 -9 -203 -9
-218 0 -251 6 -275 49 -24 45 5 111 64 143 39 22 271 116 286 117 10 1 32 -45
70 -146z"/>
<path d="M16440 12225 c-56 -18 -124 -75 -149 -124 -28 -53 -41 -140 -41 -263
l0 -108 135 0 135 0 0 86 0 86 143 -6 c78 -3 271 -9 430 -12 158 -3 287 -10
287 -15 0 -5 -2 -9 -4 -9 -8 0 -525 -162 -591 -186 -112 -39 -284 -129 -360
-187 -168 -128 -245 -283 -245 -492 1 -194 50 -332 164 -453 171 -181 477
-250 819 -186 100 19 199 55 307 110 85 43 214 135 233 164 12 20 -158 294
-176 283 -7 -4 -36 -26 -65 -50 -66 -53 -160 -102 -272 -139 -81 -27 -94 -28
-265 -28 -170 0 -185 2 -264 28 -71 24 -92 36 -137 80 -64 65 -84 122 -84 242
0 241 124 327 688 477 l92 25 0 -46 c1 -199 75 -346 204 -402 60 -27 178 -43
253 -35 142 15 232 94 275 242 12 40 25 73 29 73 4 0 14 -24 23 -52 37 -127
115 -209 235 -246 82 -25 574 -24 706 2 187 36 374 117 574 246 51 34 94 60
96 58 1 -2 10 -33 19 -71 18 -65 57 -132 100 -170 66 -58 221 -95 342 -82 143
15 233 94 276 242 12 40 25 73 29 73 4 0 14 -24 23 -52 24 -82 75 -159 130
-196 99 -66 108 -67 641 -67 523 0 565 4 695 61 l56 25 65 -34 c93 -49 178
-61 379 -54 242 8 347 42 438 141 118 130 136 319 70 728 -20 128 -23 137 -43
133 -11 -2 -68 -12 -127 -21 -60 -9 -108 -20 -108 -24 0 -4 11 -67 25 -141 14
-74 30 -179 36 -234 15 -130 3 -165 -68 -198 -45 -21 -62 -22 -263 -22 l-215
0 5 45 c9 78 3 233 -9 295 -15 72 -68 186 -110 236 -102 123 -311 185 -533
160 -305 -34 -486 -184 -722 -597 -33 -59 -65 -108 -70 -108 -5 -1 -18 12 -30
27 -18 24 -21 45 -24 143 l-4 114 -129 0 -129 0 0 -97 c-1 -127 -20 -175 -82
-203 -36 -16 -66 -20 -186 -20 -184 0 -223 15 -238 88 l-6 32 81 0 81 0 0 180
0 180 -82 0 c-135 0 -276 26 -580 105 -386 100 -478 118 -555 111 -190 -19
-253 -118 -253 -398 l0 -108 135 0 135 0 0 91 c0 81 2 90 18 85 41 -13 364
-89 537 -126 104 -22 191 -43 194 -46 8 -8 -12 -18 -127 -69 -244 -107 -375
-127 -815 -123 l-315 3 -27 25 c-50 45 -55 73 -55 285 l0 195 -130 0 -130 0 0
-192 c0 -170 -3 -198 -20 -236 -31 -68 -72 -82 -245 -82 -199 0 -238 23 -233
140 l3 54 58 15 57 15 0 271 0 271 -372 23 c-497 31 -709 35 -768 16z m5289
-426 c100 -21 152 -77 159 -168 8 -117 -34 -171 -154 -196 -85 -18 -844 -22
-844 -5 0 23 140 218 189 263 95 89 192 115 438 116 89 1 185 -4 212 -10z"/>
<path d="M9244 12078 c-202 -219 -285 -433 -255 -653 27 -190 135 -317 316
-371 88 -26 278 -24 362 3 124 41 209 115 262 228 43 90 56 157 55 285 0 200
-51 318 -205 473 l-97 97 -190 0 -190 0 -58 -62z m268 -260 c108 -84 182 -154
210 -197 52 -82 29 -159 -59 -202 -43 -22 -61 -24 -178 -24 -120 0 -133 2
-175 25 -86 48 -111 127 -70 217 20 45 184 223 206 223 6 0 36 -19 66 -42z"/>
<path d="M10520 12056 c-81 -17 -174 -71 -231 -134 -186 -204 -211 -570 -50
-744 100 -109 308 -149 451 -87 60 26 113 82 149 158 l26 56 3 -64 c2 -41 -3
-83 -13 -115 -63 -192 -261 -286 -601 -286 l-134 0 0 -180 0 -180 108 0 c217
0 347 26 489 95 257 126 393 399 393 785 0 179 -35 343 -98 465 -98 187 -287
276 -492 231z m152 -356 c92 -26 176 -118 193 -211 6 -34 5 -37 -27 -49 -19
-7 -97 -15 -181 -18 -173 -5 -224 5 -263 51 -45 54 -22 146 48 196 55 38 154
52 230 31z"/>
<path d="M17823 10854 c-104 -24 -125 -242 -27 -294 40 -22 171 -20 205 3 36
24 54 70 54 137 0 67 -18 113 -53 136 -26 17 -134 28 -179 18z"/>
<path d="M18203 10854 c-104 -24 -125 -242 -27 -294 40 -22 171 -20 205 3 36
24 54 70 54 137 0 67 -18 113 -53 136 -26 17 -134 28 -179 18z"/>
<path d="M24963 10854 c-104 -24 -125 -242 -27 -294 40 -22 171 -20 205 3 36
24 54 70 54 137 0 67 -18 113 -53 136 -26 17 -134 28 -179 18z"/>
<path d="M25343 10854 c-104 -24 -125 -242 -27 -294 40 -22 171 -20 205 3 36
24 54 70 54 137 0 67 -18 113 -53 136 -26 17 -134 28 -179 18z"/>
<path d="M27183 10854 c-104 -24 -125 -242 -27 -294 40 -22 171 -20 205 3 36
24 54 70 54 137 0 67 -18 113 -53 136 -26 17 -134 28 -179 18z"/>
<path d="M27563 10854 c-104 -24 -125 -242 -27 -294 40 -22 171 -20 205 3 36
24 54 70 54 137 0 67 -18 113 -53 136 -26 17 -134 28 -179 18z"/>
<path d="M27637 9960 c-95 -24 -131 -82 -125 -206 3 -92 19 -124 79 -159 52
-31 200 -29 252 3 57 36 72 72 72 172 0 99 -16 136 -76 169 -44 25 -144 35
-202 21z"/>
<path d="M11712 9173 l3 -778 23 -46 c60 -120 140 -159 345 -167 l137 -5 0
137 0 136 -80 0 -80 0 0 750 0 750 -175 0 -176 0 3 -777z"/>
<path d="M8780 9690 l0 -160 225 0 225 0 0 -675 0 -675 180 0 180 0 0 675 0
675 225 0 225 0 0 160 0 160 -630 0 -630 0 0 -160z"/>
<path d="M26600 9658 c0 -183 -24 -218 -147 -218 l-63 0 0 -135 0 -135 84 0
84 0 4 -367 c4 -398 5 -404 63 -491 61 -92 146 -123 358 -130 l157 -5 0 136 0
136 -112 3 -113 3 -3 358 -2 357 125 0 125 0 0 135 0 135 -125 0 -125 0 0 170
0 170 -155 0 -155 0 0 -122z"/>
<path d="M10630 9460 c-125 -20 -245 -82 -319 -166 -55 -62 -117 -188 -136
-279 -20 -95 -20 -315 1 -408 39 -178 144 -320 286 -389 104 -51 164 -63 308
-62 144 1 227 18 337 70 88 42 183 125 167 145 -6 8 -46 58 -89 112 l-77 97
-59 -54 c-75 -70 -142 -96 -248 -96 -99 0 -159 21 -211 72 -43 43 -70 112 -70
180 l0 38 405 0 405 0 0 74 c0 353 -143 582 -407 651 -72 19 -221 26 -293 15z
m217 -271 c67 -32 102 -95 117 -206 l7 -53 -227 0 -227 0 6 58 c8 96 59 172
137 206 51 22 135 20 187 -5z"/>
<path d="M12881 9458 c-134 -19 -235 -71 -321 -165 -27 -30 -50 -58 -49 -61 1
-7 187 -175 199 -180 4 -1 32 22 63 51 66 65 122 87 219 87 78 0 121 -15 160
-56 37 -40 48 -74 48 -153 l0 -68 -177 -6 c-317 -10 -457 -71 -529 -230 -24
-53 -28 -75 -28 -152 0 -106 13 -156 57 -221 72 -107 168 -149 337 -148 84 1
117 6 164 24 78 30 148 95 177 166 13 30 26 54 30 54 4 0 10 -15 13 -33 10
-55 60 -123 112 -153 45 -27 57 -29 181 -32 l133 -4 0 135 0 136 -57 3 -58 3
-5 345 c-6 382 -7 386 -76 487 -97 141 -330 209 -593 171z m319 -847 c0 -85
-3 -102 -23 -131 -29 -45 -72 -69 -142 -80 -71 -12 -144 3 -179 35 -52 48 -56
162 -7 217 40 44 90 57 229 58 l122 0 0 -99z"/>
<path d="M16451 9458 c-134 -19 -235 -71 -321 -165 -27 -30 -50 -58 -49 -61 1
-7 187 -175 199 -180 4 -1 32 22 63 51 66 65 122 87 219 87 78 0 121 -15 160
-56 37 -40 48 -74 48 -153 l0 -68 -177 -6 c-317 -10 -457 -71 -529 -230 -24
-53 -28 -75 -28 -152 0 -106 13 -156 57 -221 72 -107 168 -149 337 -148 84 1
117 6 164 24 78 30 148 95 177 166 13 30 26 54 30 54 4 0 10 -15 13 -33 10
-55 60 -123 112 -153 45 -27 57 -29 181 -32 l133 -4 0 135 0 136 -57 3 -58 3
-5 345 c-6 382 -7 386 -76 487 -97 141 -330 209 -593 171z m319 -847 c0 -85
-3 -102 -23 -131 -29 -45 -72 -69 -142 -80 -71 -12 -144 3 -179 35 -52 48 -56
162 -7 217 40 44 90 57 229 58 l122 0 0 -99z"/>
<path d="M19094 9460 c-225 -33 -381 -179 -446 -417 -17 -64 -21 -107 -21
-233 0 -126 4 -169 21 -233 44 -163 136 -290 257 -354 100 -52 165 -67 300
-67 184 0 289 38 389 144 51 53 121 171 114 191 -3 10 -242 119 -259 119 -5 0
-20 -21 -33 -47 -45 -88 -114 -133 -204 -133 -67 0 -110 16 -154 58 -62 59
-73 108 -73 317 0 202 9 251 58 310 97 118 296 93 359 -45 13 -28 27 -48 33
-46 5 2 70 30 142 61 l132 58 -36 69 c-43 82 -128 165 -209 203 -98 46 -242
64 -370 45z"/>
<path d="M20411 9455 c-212 -39 -371 -199 -427 -430 -24 -100 -25 -315 -1
-420 56 -241 213 -401 433 -440 347 -62 615 108 691 440 24 105 23 320 -1 420
-41 171 -147 315 -280 380 -120 60 -265 77 -415 50z m253 -296 c46 -31 83 -91
93 -148 4 -25 8 -116 8 -201 0 -85 -4 -176 -8 -201 -10 -58 -48 -117 -95 -149
-31 -22 -47 -25 -117 -25 -70 0 -87 3 -117 24 -41 28 -74 74 -89 122 -17 53
-23 314 -10 397 13 86 27 116 72 160 43 42 78 52 161 48 51 -2 76 -9 102 -27z"/>
<path d="M24070 9460 c-125 -20 -245 -82 -319 -166 -55 -62 -117 -188 -136
-279 -20 -95 -20 -315 1 -408 39 -178 144 -320 286 -389 104 -51 164 -63 308
-62 144 1 227 18 337 70 88 42 183 125 167 145 -6 8 -46 58 -89 112 l-77 97
-59 -54 c-75 -70 -142 -96 -248 -96 -99 0 -159 21 -211 72 -43 43 -70 112 -70
180 l0 38 405 0 405 0 0 74 c0 353 -143 582 -407 651 -72 19 -221 26 -293 15z
m217 -271 c67 -32 102 -95 117 -206 l7 -53 -227 0 -227 0 6 58 c8 96 59 172
137 206 51 22 135 20 187 -5z"/>
<path d="M25534 9460 c-225 -33 -381 -179 -446 -417 -17 -64 -21 -107 -21
-233 0 -126 4 -169 21 -233 44 -163 136 -290 257 -354 100 -52 165 -67 300
-67 184 0 289 38 389 144 51 53 121 171 114 191 -3 10 -242 119 -259 119 -5 0
-20 -21 -33 -47 -45 -88 -114 -133 -204 -133 -67 0 -110 16 -154 58 -62 59
-73 108 -73 317 0 202 9 251 58 310 97 118 296 93 359 -45 13 -28 27 -48 33
-46 5 2 70 30 142 61 l132 58 -36 69 c-43 82 -128 165 -209 203 -98 46 -242
64 -370 45z"/>
<path d="M28711 9455 c-212 -39 -371 -199 -427 -430 -24 -100 -25 -315 -1
-420 56 -241 213 -401 433 -440 347 -62 615 108 691 440 24 105 23 320 -1 420
-41 171 -147 315 -280 380 -120 60 -265 77 -415 50z m253 -296 c46 -31 83 -91
93 -148 4 -25 8 -116 8 -201 0 -85 -4 -176 -8 -201 -10 -58 -48 -117 -95 -149
-31 -22 -47 -25 -117 -25 -70 0 -87 3 -117 24 -41 28 -74 74 -89 122 -17 53
-23 314 -10 397 13 86 27 116 72 160 43 42 78 52 161 48 51 -2 76 -9 102 -27z"/>
<path d="M30431 9460 c-104 -22 -192 -90 -234 -181 -12 -27 -25 -49 -29 -49
-5 0 -8 47 -8 105 l0 105 -175 0 -175 0 0 -630 0 -630 175 0 175 0 0 432 0
431 25 43 c34 58 109 95 191 95 33 0 71 -4 85 -9 35 -14 76 -64 89 -110 6 -23
10 -200 10 -459 l0 -423 175 0 175 0 0 445 c0 367 -3 459 -16 522 -41 199
-157 308 -341 318 -43 2 -98 0 -122 -5z"/>
<path d="M13904 9423 c3 -10 75 -270 161 -578 86 -308 163 -584 171 -613 l16
-52 181 2 182 3 97 345 c53 190 107 383 119 429 13 51 25 78 29 70 4 -8 24
-75 44 -149 20 -74 73 -262 118 -418 l81 -282 185 2 185 3 172 625 172 625
-160 3 c-88 1 -161 1 -163 0 -3 -4 -134 -557 -175 -738 -17 -80 -34 -147 -35
-149 -8 -9 -15 12 -67 204 -30 110 -85 309 -123 442 l-69 243 -161 0 -161 0
-71 -252 c-39 -139 -92 -332 -117 -428 -58 -221 -55 -214 -65 -204 -4 5 -29
101 -54 214 -25 113 -70 310 -101 438 l-57 232 -170 0 c-157 0 -169 -1 -164
-17z"/>
<path d="M21510 8810 l0 -630 175 0 175 0 0 395 c0 372 1 398 19 434 11 21 31
45 45 55 43 27 136 46 233 46 l93 0 0 166 0 167 -77 -7 c-134 -11 -219 -69
-268 -181 -12 -27 -27 -61 -33 -75 -8 -20 -11 6 -11 118 l-1 142 -175 0 -175
0 0 -630z"/>
<path d="M22600 8810 l0 -630 175 0 175 0 0 395 c0 372 1 398 19 434 11 21 31
45 45 55 43 27 136 46 233 46 l93 0 0 166 0 167 -77 -7 c-134 -11 -219 -69
-268 -181 -12 -27 -27 -61 -33 -75 -8 -20 -11 6 -11 118 l-1 142 -175 0 -175
0 0 -630z"/>
<path d="M27540 8810 l0 -630 175 0 175 0 0 630 0 630 -175 0 -175 0 0 -630z"/>
<path d="M17550 8910 l0 -170 355 0 355 0 0 170 0 170 -355 0 -355 0 0 -170z"/>
</g>
</svg>
